# xmcd
#
# Track frame offsets:
#	150
#	14215
#	26507
#	37933
#	51733
#	61933
#	71446
#	90893
#	103051
#	114272
#	131056
#	151721
#	165588
#	176704
#	197456
#	213687
#	226350
#	242253
#	255684
#	264517
#	278336
#	295388
#	306055
#	319390
#	334734
#
# Disc length: 4676 seconds
#
# Revision: 0
# Processed by: cddbd v1.5.1PL2 Copyright (c) Steve Scherf et al.
# Submitted via: dBpowerAMP V4.0
#
DISCID=5e124219
DTITLE=Slitr Suchy - Zlate hity ze Semaforu CD I
DYEAR=1900
DGENRE=Cabaret
TTITLE0=Leta dozravani
TTITLE1=Vcera nedele byla
TTITLE2=Betty
TTITLE3=Z meho zivota
TTITLE4=Blues o stabilite
TTITLE5=Barvy laky
TTITLE6=Marniva sestrenice
TTITLE7=Pondelni blues
TTITLE8=Slunicko
TTITLE9=Sup a zluva
TTITLE10=Klokoci
TTITLE11=Melancholicke blues
TTITLE12=Mister rock a mister roll
TTITLE13=Ach, ta laska nebeska
TTITLE14=Pisnicka pro Zuzanu
TTITLE15=Proc se lidi nemaj radi
TTITLE16=Arie mesice
TTITLE17=Tu krasu nelze popsat slovy
TTITLE18=Kocka na okne
TTITLE19=Zcervena
TTITLE20=Zivot je pes
TTITLE21=Bud mi verna moje mila
TTITLE22=Kapitane, kam s tou lodi zpiva
TTITLE23=Student s rudyma usima
TTITLE24=Tereza
EXTD=
EXTT0=
EXTT1=
EXTT2=
EXTT3=
EXTT4=
EXTT5=
EXTT6=
EXTT7=
EXTT8=
EXTT9=
EXTT10=
EXTT11=
EXTT12=
EXTT13=
EXTT14=
EXTT15=
EXTT16=
EXTT17=
EXTT18=
EXTT19=
EXTT20=
EXTT21=
EXTT22=
EXTT23=
EXTT24=
PLAYORDER=
